<?xml version="1.0" standalone="no"?>
<!DOCTYPE svg PUBLIC "-//W3C//DTD SVG 20010904//EN"
 "http://www.w3.org/TR/2001/REC-SVG-20010904/DTD/svg10.dtd">
<svg version="1.0" xmlns="http://www.w3.org/2000/svg"
 width="830.000000pt" height="830.000000pt" viewBox="0 0 830.000000 830.000000"
 preserveAspectRatio="xMidYMid meet">
<metadata>
Created by potrace 1.11, written by Peter Selinger 2001-2013
</metadata>
<g transform="translate(0.000000,830.000000) scale(0.100000,-0.100000)"
fill="#000000" stroke="none">
<path d="M3608 6823 c7 -3 16 -2 19 1 4 3 -2 6 -13 5 -11 0 -14 -3 -6 -6z"/>
<path d="M3470 6805 c-359 -103 -621 -418 -705 -846 -12 -59 -18 -165 -22
-361 l-6 -278 172 0 171 0 0 253 c0 286 6 322 69 452 72 146 187 261 324 326
83 38 144 49 301 51 72 0 117 3 99 5 -23 3 -43 18 -77 58 -25 29 -46 57 -46
61 0 4 -33 46 -73 93 -40 47 -89 109 -109 138 -36 50 -36 52 -15 56 16 3 14 4
-8 5 -16 0 -50 -6 -75 -13z"/>
<path d="M5304 6358 c-84 -101 -124 -156 -118 -163 5 -7 26 -34 47 -61 20 -27
53 -81 72 -119 57 -117 65 -169 65 -447 l0 -248 -280 0 -280 0 0 128 c-1 108
-4 135 -23 181 -12 30 -26 56 -32 57 -5 2 -41 -35 -80 -82 -107 -130 -89 -128
-180 -18 -44 53 -84 104 -90 114 -5 10 -28 40 -50 67 l-40 51 -144 7 c-170 9
-304 3 -346 -16 -94 -42 -165 -144 -185 -264 -13 -77 -13 -921 0 -998 13 -80
50 -157 98 -205 80 -80 61 -77 487 -77 l380 0 52 33 c58 37 94 80 126 150 18
39 23 71 27 187 l5 140 278 3 278 2 -3 -277 c-3 -272 -4 -280 -30 -351 -69
-191 -210 -335 -394 -405 -58 -22 -65 -22 -674 -25 -662 -3 -686 -2 -797 48
-168 76 -292 209 -366 393 -20 47 -22 78 -27 332 l-5 280 -165 0 -165 0 1
-270 c1 -299 12 -392 64 -547 62 -185 155 -333 289 -461 124 -117 262 -193
417 -229 85 -19 1332 -19 1417 0 144 33 296 116 410 222 160 150 260 324 325
565 l26 100 4 845 c3 744 1 857 -13 945 -33 199 -120 402 -231 538 l-23 27
-127 -152z"/>
<path d="M5440 2265 l0 -505 115 0 115 0 0 505 0 505 -115 0 -115 0 0 -505z"/>
<path d="M1802 2263 l3 -498 105 0 105 0 3 157 3 157 238 3 c234 3 238 3 273
28 65 44 72 71 76 286 5 254 -10 303 -102 345 -37 17 -71 19 -374 19 l-332 0
2 -497z m578 287 c18 -18 20 -33 20 -135 0 -161 8 -155 -210 -155 l-170 0 0
155 0 155 170 0 c157 0 172 -2 190 -20z"/>
<path d="M2742 2348 l3 -413 27 -55 c53 -107 113 -124 428 -118 196 3 219 5
255 25 53 28 81 59 102 113 15 39 17 96 21 453 l4 407 -111 0 -111 0 0 -369
c0 -348 -1 -370 -19 -392 -18 -23 -25 -24 -171 -27 -173 -4 -192 2 -209 65 -7
23 -11 173 -11 381 l0 342 -106 0 -105 0 3 -412z"/>
<path d="M3710 2260 l0 -501 353 3 c402 3 402 3 445 88 19 39 22 59 22 171 0
161 -5 184 -50 229 l-37 37 23 27 c36 41 47 99 42 221 -5 123 -18 159 -70 197
-33 23 -35 23 -380 26 l-348 3 0 -501z m574 288 c23 -32 22 -139 -1 -167 -17
-21 -25 -22 -188 -19 l-170 3 -3 103 -3 102 175 0 c169 0 175 -1 190 -22z m22
-372 c9 -13 14 -47 14 -103 0 -126 3 -124 -218 -121 l-177 3 -3 109 c-1 61 0
116 3 123 4 12 39 14 186 11 165 -3 182 -5 195 -22z"/>
<path d="M4660 2260 l0 -500 335 0 335 0 0 110 0 110 -230 0 -230 0 0 390 0
390 -105 0 -105 0 0 -500z"/>
<path d="M5940 2747 c-19 -6 -50 -27 -70 -47 -60 -60 -65 -93 -65 -450 l0
-315 27 -55 c52 -104 105 -120 397 -120 212 1 266 8 322 45 61 39 82 99 87
237 l4 118 -99 0 -100 0 -5 -70 c-4 -56 -10 -76 -28 -95 -23 -25 -26 -25 -185
-25 -222 0 -209 -15 -213 253 -4 225 1 276 28 309 17 21 27 23 145 27 222 6
243 -4 253 -124 l5 -65 98 0 99 0 0 93 c0 155 -38 239 -125 278 -36 17 -68 18
-290 18 -152 -1 -264 -5 -285 -12z"/>
</g>
</svg>
